# xmcd CD database file
#
# Track frame offsets:
#	150
#	19003
#	34258
#	56257
#	69531
#	84879
#	99802
#	118534
#	139682
#	155647
#	173484
#	186889
#
# Disc length: 2695 seconds
#
# Revision: 0
# Processed by: cddbd v1.5.1PL2 Copyright (c) Steve Scherf et al.
# Submitted via: CDex 1.51
#
DISCID=8c0a850c
DTITLE=Clifton Chenier - Clifton Chenier Sings the Blues
DYEAR=1987
DGENRE=Blues
TTITLE0=Ain't No Need of Cryin'
TTITLE1=Rosemary
TTITLE2=Brown Skinned Woman
TTITLE3=Done Got Over
TTITLE4=Gone a la Maison
TTITLE5=Me and My Chauffeur Blues
TTITLE6=My Little Angel
TTITLE7=Paper in My Shoe
TTITLE8=Blues After Hours
TTITLE9=Trouble in Mind
TTITLE10=In the Mood
TTITLE11=Worried Life Blues
EXTD=YEAR: 1987
EXTT0=
EXTT1=
EXTT2=
EXTT3=
EXTT4=
EXTT5=
EXTT6=
EXTT7=
EXTT8=
EXTT9=
EXTT10=
EXTT11=
PLAYORDER=
